<svg width="294" height="88" viewBox="0 0 294 88" fill="none" xmlns="http://www.w3.org/2000/svg">
<g filter="url(#filter0_d_213244_16)">
<path d="M102.365 31.92H114.685V39.04H102.365V31.92ZM103.005 48H93.5652V20H116.325V27.12H103.005V48ZM133.792 48.64C131.525 48.64 129.419 48.28 127.472 47.56C125.552 46.84 123.885 45.8267 122.472 44.52C121.059 43.1867 119.952 41.6267 119.152 39.84C118.379 38.0533 117.992 36.1067 117.992 34C117.992 31.8667 118.379 29.92 119.152 28.16C119.952 26.3733 121.059 24.8267 122.472 23.52C123.885 22.1867 125.552 21.16 127.472 20.44C129.419 19.72 131.525 19.36 133.792 19.36C136.085 19.36 138.192 19.72 140.112 20.44C142.032 21.16 143.699 22.1867 145.112 23.52C146.525 24.8267 147.619 26.3733 148.392 28.16C149.192 29.92 149.592 31.8667 149.592 34C149.592 36.1067 149.192 38.0533 148.392 39.84C147.619 41.6267 146.525 43.1867 145.112 44.52C143.699 45.8267 142.032 46.84 140.112 47.56C138.192 48.28 136.085 48.64 133.792 48.64ZM133.792 41C134.672 41 135.485 40.84 136.232 40.52C137.005 40.2 137.672 39.7467 138.232 39.16C138.819 38.5467 139.272 37.8133 139.592 36.96C139.912 36.08 140.072 35.0933 140.072 34C140.072 32.9067 139.912 31.9333 139.592 31.08C139.272 30.2 138.819 29.4667 138.232 28.88C137.672 28.2667 137.005 27.8 136.232 27.48C135.485 27.16 134.672 27 133.792 27C132.912 27 132.085 27.16 131.312 27.48C130.565 27.8 129.899 28.2667 129.312 28.88C128.752 29.4667 128.312 30.2 127.992 31.08C127.672 31.9333 127.512 32.9067 127.512 34C127.512 35.0933 127.672 36.08 127.992 36.96C128.312 37.8133 128.752 38.5467 129.312 39.16C129.899 39.7467 130.565 40.2 131.312 40.52C132.085 40.84 132.912 41 133.792 41ZM153.018 48V20H162.458V40.68H175.098V48H153.018ZM188.146 48.64C185.799 48.64 183.532 48.3733 181.346 47.84C179.159 47.3067 177.359 46.6133 175.946 45.76L178.986 38.88C180.319 39.6533 181.799 40.28 183.426 40.76C185.079 41.2133 186.679 41.44 188.226 41.44C189.132 41.44 189.839 41.3867 190.346 41.28C190.879 41.1467 191.266 40.9733 191.506 40.76C191.746 40.52 191.866 40.24 191.866 39.92C191.866 39.4133 191.586 39.0133 191.026 38.72C190.466 38.4267 189.719 38.1867 188.786 38C187.879 37.7867 186.879 37.5733 185.786 37.36C184.692 37.12 183.586 36.8133 182.466 36.44C181.372 36.0667 180.359 35.5733 179.426 34.96C178.519 34.3467 177.786 33.5467 177.226 32.56C176.666 31.5467 176.386 30.2933 176.386 28.8C176.386 27.0667 176.866 25.4933 177.826 24.08C178.812 22.64 180.266 21.4933 182.186 20.64C184.132 19.7867 186.546 19.36 189.426 19.36C191.319 19.36 193.186 19.56 195.026 19.96C196.866 20.36 198.519 20.9733 199.986 21.8L197.146 28.64C195.759 27.9467 194.412 27.4267 193.106 27.08C191.826 26.7333 190.572 26.56 189.346 26.56C188.439 26.56 187.719 26.64 187.186 26.8C186.652 26.96 186.266 27.1733 186.026 27.44C185.812 27.7067 185.706 28 185.706 28.32C185.706 28.8 185.986 29.1867 186.546 29.48C187.106 29.7467 187.839 29.9733 188.746 30.16C189.679 30.3467 190.692 30.5467 191.786 30.76C192.906 30.9733 194.012 31.2667 195.106 31.64C196.199 32.0133 197.199 32.5067 198.106 33.12C199.039 33.7333 199.786 34.5333 200.346 35.52C200.906 36.5067 201.186 37.7333 201.186 39.2C201.186 40.9067 200.692 42.48 199.706 43.92C198.746 45.3333 197.306 46.48 195.386 47.36C193.466 48.2133 191.052 48.64 188.146 48.64Z" fill="#BF9FFF"/>
</g>
<g filter="url(#filter1_d_213244_16)">
<path d="M65.5183 68H64.5183V69H65.5183V68ZM65.5183 40V39H64.5183V40H65.5183ZM73.2783 40L74.131 39.4776L73.8384 39H73.2783V40ZM84.4783 58.28V59.28H86.2637L85.331 57.7576L84.4783 58.28ZM80.3983 58.28L79.539 57.7685L78.6394 59.28H80.3983V58.28ZM91.2783 40V39H90.7097L90.419 39.4885L91.2783 40ZM99.0383 40L100.038 39.9971L100.035 39H99.0383V40ZM99.1183 68V69H100.121L100.118 67.9971L99.1183 68ZM90.5183 68L89.5183 68.0053L89.5236 69H90.5183V68ZM90.4383 52.96V51.96H89.4329L89.4383 52.9653L90.4383 52.96ZM91.7983 52.96L92.6579 53.4709L93.5558 51.96H91.7983V52.96ZM84.3583 65.48V66.48H84.9273L85.2179 65.9909L84.3583 65.48ZM80.1983 65.48L79.3483 66.0068L79.6416 66.48H80.1983V65.48ZM72.4383 52.96V51.96H70.642L71.5883 53.4868L72.4383 52.96ZM74.1183 52.96H75.1183V51.96H74.1183V52.96ZM74.1183 68V69H75.1183V68H74.1183ZM66.5183 68V40H64.5183V68H66.5183ZM65.5183 41H73.2783V39H65.5183V41ZM72.4256 40.5224L83.6256 58.8024L85.331 57.7576L74.131 39.4776L72.4256 40.5224ZM84.4783 57.28H80.3983V59.28H84.4783V57.28ZM81.2576 58.7915L92.1376 40.5114L90.419 39.4885L79.539 57.7685L81.2576 58.7915ZM91.2783 41H99.0383V39H91.2783V41ZM98.0383 40.0029L98.1183 68.0029L100.118 67.9971L100.038 39.9971L98.0383 40.0029ZM99.1183 67H90.5183V69H99.1183V67ZM91.5183 67.9947L91.4383 52.9547L89.4383 52.9653L89.5183 68.0053L91.5183 67.9947ZM90.4383 53.96H91.7983V51.96H90.4383V53.96ZM90.9386 52.4491L83.4986 64.9691L85.2179 65.9909L92.6579 53.4709L90.9386 52.4491ZM84.3583 64.48H80.1983V66.48H84.3583V64.48ZM81.0483 64.9532L73.2883 52.4332L71.5883 53.4868L79.3483 66.0068L81.0483 64.9532ZM72.4383 53.96H74.1183V51.96H72.4383V53.96ZM73.1183 52.96V68H75.1183V52.96H73.1183ZM74.1183 67H65.5183V69H74.1183V67ZM112.042 67.56L111.691 68.4963L111.695 68.4979L112.042 67.56ZM107.042 64.52L106.356 65.2474L106.363 65.2543L107.042 64.52ZM103.722 59.84L102.805 60.2373L102.81 60.2487L103.722 59.84ZM103.722 48.16L102.81 47.7513L102.807 47.7577L103.722 48.16ZM107.042 43.52L107.721 44.2543L107.729 44.2474L107.042 43.52ZM112.042 40.44L111.695 39.5021L111.691 39.5037L112.042 40.44ZM124.682 40.44L124.331 41.3763V41.3763L124.682 40.44ZM129.682 43.52L128.996 44.2474L129.003 44.2543L129.682 43.52ZM132.962 48.16L132.045 48.5572L132.048 48.5655L132.052 48.5738L132.962 48.16ZM132.962 59.84L132.05 59.4313L132.045 59.4428L132.962 59.84ZM129.682 64.52L130.361 65.2543L130.369 65.2474L129.682 64.52ZM124.682 67.56L124.331 66.6237L124.682 67.56ZM120.802 60.52L120.42 59.5959L120.408 59.6009L120.802 60.52ZM122.802 59.16L122.08 58.4688L122.079 58.4695L122.802 59.16ZM124.162 56.96L125.099 57.3111L125.102 57.3017L124.162 56.96ZM124.162 51.08L123.223 51.4218L123.226 51.4311L124.162 51.08ZM122.802 48.88L122.064 49.5543L122.079 49.571L122.095 49.5871L122.802 48.88ZM120.802 47.48L120.408 48.3992L120.42 48.404L120.802 47.48ZM115.882 47.48L115.5 46.5559L115.488 46.5609L115.882 47.48ZM113.882 48.88L113.16 48.1888L113.159 48.1895L113.882 48.88ZM112.562 51.08L113.499 51.4311L113.502 51.4217L112.562 51.08ZM112.562 56.96L111.623 57.3018L111.626 57.3111L112.562 56.96ZM113.882 59.16L113.144 59.8343L113.159 59.851L113.175 59.8671L113.882 59.16ZM115.882 60.52L115.488 61.4392L115.5 61.444L115.882 60.52ZM118.362 67.64C116.203 67.64 114.215 67.2974 112.389 66.6221L111.695 68.4979C113.763 69.2626 115.988 69.64 118.362 69.64V67.64ZM112.393 66.6237C110.587 65.9462 109.033 64.9988 107.721 63.7857L106.363 65.2543C107.878 66.6545 109.658 67.7338 111.691 68.4963L112.393 66.6237ZM107.729 63.7926C106.412 62.5503 105.382 61.0988 104.635 59.4313L102.81 60.2487C103.663 62.1545 104.846 63.8231 106.356 65.2474L107.729 63.7926ZM104.64 59.4428C103.925 57.7915 103.562 55.9814 103.562 54H101.562C101.562 56.232 101.973 58.3152 102.805 60.2372L104.64 59.4428ZM103.562 54C103.562 51.9899 103.926 50.1822 104.638 48.5623L102.807 47.7577C101.972 49.6578 101.562 51.7434 101.562 54H103.562ZM104.635 48.5687C105.381 46.903 106.409 45.4677 107.721 44.2543L106.363 42.7857C104.849 44.1856 103.664 45.8436 102.81 47.7513L104.635 48.5687ZM107.729 44.2474C109.04 43.0103 110.591 42.0523 112.393 41.3763L111.691 39.5037C109.654 40.2677 107.871 41.363 106.356 42.7926L107.729 44.2474ZM112.389 41.3779C114.215 40.7026 116.203 40.36 118.362 40.36V38.36C115.988 38.36 113.763 38.7374 111.695 39.5021L112.389 41.3779ZM118.362 40.36C120.55 40.36 122.536 40.7031 124.331 41.3763L125.033 39.5037C122.989 38.7369 120.761 38.36 118.362 38.36V40.36ZM124.331 41.3763C126.134 42.0523 127.685 43.0103 128.996 44.2474L130.369 42.7926C128.853 41.363 127.071 40.2677 125.033 39.5037L124.331 41.3763ZM129.003 44.2543C130.313 45.4653 131.326 46.8968 132.045 48.5572L133.88 47.7628C133.052 45.8499 131.878 44.188 130.361 42.7857L129.003 44.2543ZM132.052 48.5738C132.787 50.1909 133.162 51.9945 133.162 54H135.162C135.162 51.7388 134.738 49.6491 133.873 47.7462L132.052 48.5738ZM133.162 54C133.162 55.9767 132.788 57.7828 132.05 59.4313L133.875 60.2487C134.737 58.3239 135.162 56.2366 135.162 54H133.162ZM132.045 59.4428C131.325 61.1051 130.31 62.5527 128.996 63.7926L130.369 65.2474C131.881 63.8207 133.053 62.1483 133.88 60.2372L132.045 59.4428ZM129.003 63.7857C127.691 64.9988 126.138 65.9462 124.331 66.6237L125.033 68.4963C127.067 67.7338 128.847 66.6545 130.361 65.2543L129.003 63.7857ZM124.331 66.6237C122.536 67.2969 120.55 67.64 118.362 67.64V69.64C120.761 69.64 122.989 69.2631 125.033 68.4963L124.331 66.6237ZM118.362 62C119.366 62 120.315 61.8168 121.196 61.4391L120.408 59.6009C119.796 59.8632 119.118 60 118.362 60V62ZM121.185 61.444C122.083 61.0725 122.866 60.5411 123.526 59.8505L122.079 58.4695C121.618 58.9522 121.069 59.3275 120.42 59.596L121.185 61.444ZM123.525 59.8512C124.212 59.1331 124.735 58.2816 125.099 57.3111L123.226 56.6089C122.95 57.345 122.566 57.9602 122.08 58.4688L123.525 59.8512ZM125.102 57.3017C125.468 56.2955 125.642 55.1907 125.642 54H123.642C123.642 54.9959 123.497 55.8645 123.223 56.6183L125.102 57.3017ZM125.642 54C125.642 52.8101 125.468 51.7144 125.099 50.7289L123.226 51.4311C123.496 52.1522 123.642 53.0033 123.642 54H125.642ZM125.102 50.7383C124.739 49.7387 124.212 48.8754 123.509 48.1729L122.095 49.5871C122.566 50.0579 122.946 50.6613 123.223 51.4217L125.102 50.7383ZM123.541 48.2057C122.881 47.4832 122.093 46.9316 121.185 46.556L120.42 48.404C121.059 48.6684 121.604 49.0502 122.064 49.5543L123.541 48.2057ZM121.196 46.5609C120.315 46.1832 119.366 46 118.362 46V48C119.118 48 119.796 48.1368 120.408 48.3991L121.196 46.5609ZM118.362 46C117.358 46 116.401 46.1833 115.5 46.556L116.265 48.404C116.911 48.1367 117.607 48 118.362 48V46ZM115.488 46.5609C114.612 46.9363 113.835 47.4826 113.16 48.1888L114.605 49.5712C115.103 49.0508 115.659 48.6637 116.276 48.3991L115.488 46.5609ZM113.159 48.1895C112.49 48.8905 111.983 49.7482 111.623 50.7383L113.502 51.4217C113.782 50.6518 114.155 50.0428 114.606 49.5705L113.159 48.1895ZM111.626 50.7289C111.256 51.7144 111.082 52.8101 111.082 54H113.082C113.082 53.0033 113.228 52.1522 113.499 51.4311L111.626 50.7289ZM111.082 54C111.082 55.1907 111.257 56.2955 111.623 57.3017L113.502 56.6183C113.228 55.8645 113.082 54.9959 113.082 54H111.082ZM111.626 57.3111C111.986 58.2721 112.49 59.118 113.144 59.8343L114.621 58.4857C114.155 57.9753 113.778 57.3545 113.499 56.6089L111.626 57.3111ZM113.175 59.8671C113.85 60.5418 114.622 61.0679 115.488 61.4391L116.276 59.6009C115.649 59.332 115.088 58.9516 114.589 58.4529L113.175 59.8671ZM115.5 61.444C116.401 61.8167 117.358 62 118.362 62V60C117.607 60 116.911 59.8633 116.265 59.596L115.5 61.444ZM145.949 67.56L145.597 68.4963L145.602 68.4979L145.949 67.56ZM140.949 64.52L140.262 65.2474L140.27 65.2543L140.949 64.52ZM137.629 59.84L136.711 60.2373L136.716 60.2487L137.629 59.84ZM137.629 48.16L136.716 47.7513L136.713 47.7577L137.629 48.16ZM140.949 43.52L141.627 44.2543L141.635 44.2474L140.949 43.52ZM145.949 40.44L145.602 39.5021L145.597 39.5037L145.949 40.44ZM158.589 40.44L158.237 41.3763V41.3763L158.589 40.44ZM163.589 43.52L162.902 44.2474L162.91 44.2543L163.589 43.52ZM166.869 48.16L165.951 48.5572L165.954 48.5655L165.958 48.5738L166.869 48.16ZM166.869 59.84L165.956 59.4313L165.951 59.4428L166.869 59.84ZM163.589 64.52L164.267 65.2543L164.275 65.2474L163.589 64.52ZM158.589 67.56L158.237 66.6237L158.589 67.56ZM154.709 60.52L154.326 59.5959L154.315 59.6009L154.709 60.52ZM156.709 59.16L155.986 58.4688L155.985 58.4695L156.709 59.16ZM158.069 56.96L159.005 57.3111L159.008 57.3017L158.069 56.96ZM158.069 51.08L157.129 51.4218L157.132 51.4311L158.069 51.08ZM156.709 48.88L155.97 49.5543L155.985 49.571L156.001 49.5871L156.709 48.88ZM154.709 47.48L154.315 48.3992L154.326 48.404L154.709 47.48ZM149.789 47.48L149.406 46.5559L149.395 46.5609L149.789 47.48ZM147.789 48.88L147.066 48.1888L147.065 48.1895L147.789 48.88ZM146.469 51.08L147.405 51.4311L147.408 51.4217L146.469 51.08ZM146.469 56.96L145.529 57.3018L145.532 57.3111L146.469 56.96ZM147.789 59.16L147.05 59.8343L147.065 59.851L147.081 59.8671L147.789 59.16ZM149.789 60.52L149.395 61.4392L149.406 61.444L149.789 60.52ZM152.269 67.64C150.109 67.64 148.121 67.2974 146.295 66.6221L145.602 68.4979C147.669 69.2626 149.894 69.64 152.269 69.64V67.64ZM146.3 66.6237C144.493 65.9462 142.94 64.9988 141.627 63.7857L140.27 65.2543C141.784 66.6545 143.564 67.7338 145.597 68.4963L146.3 66.6237ZM141.635 63.7926C140.318 62.5503 139.288 61.0988 138.541 59.4313L136.716 60.2487C137.569 62.1545 138.753 63.8231 140.262 65.2474L141.635 63.7926ZM138.546 59.4428C137.832 57.7915 137.469 55.9814 137.469 54H135.469C135.469 56.232 135.879 58.3152 136.711 60.2372L138.546 59.4428ZM137.469 54C137.469 51.9899 137.832 50.1822 138.544 48.5623L136.713 47.7577C135.878 49.6578 135.469 51.7434 135.469 54H137.469ZM138.541 48.5687C139.287 46.903 140.315 45.4677 141.627 44.2543L140.27 42.7857C138.756 44.1856 137.57 45.8436 136.716 47.7513L138.541 48.5687ZM141.635 44.2474C142.946 43.0103 144.497 42.0523 146.3 41.3763L145.597 39.5037C143.56 40.2677 141.778 41.363 140.262 42.7926L141.635 44.2474ZM146.295 41.3779C148.121 40.7026 150.109 40.36 152.269 40.36V38.36C149.894 38.36 147.669 38.7374 145.602 39.5021L146.295 41.3779ZM152.269 40.36C154.456 40.36 156.442 40.7031 158.237 41.3763L158.94 39.5037C156.895 38.7369 154.668 38.36 152.269 38.36V40.36ZM158.237 41.3763C160.04 42.0523 161.591 43.0103 162.902 44.2474L164.275 42.7926C162.759 41.363 160.977 40.2677 158.94 39.5037L158.237 41.3763ZM162.91 44.2543C164.22 45.4653 165.232 46.8968 165.951 48.5572L167.786 47.7628C166.958 45.8499 165.784 44.188 164.267 42.7857L162.91 44.2543ZM165.958 48.5738C166.693 50.1909 167.069 51.9945 167.069 54H169.069C169.069 51.7388 168.644 49.6491 167.779 47.7462L165.958 48.5738ZM167.069 54C167.069 55.9767 166.694 57.7828 165.956 59.4313L167.781 60.2487C168.643 58.3239 169.069 56.2366 169.069 54H167.069ZM165.951 59.4428C165.231 61.1051 164.217 62.5527 162.902 63.7926L164.275 65.2474C165.787 63.8207 166.959 62.1483 167.786 60.2372L165.951 59.4428ZM162.91 63.7857C161.598 64.9988 160.044 65.9462 158.237 66.6237L158.94 68.4963C160.973 67.7338 162.753 66.6545 164.267 65.2543L162.91 63.7857ZM158.237 66.6237C156.442 67.2969 154.456 67.64 152.269 67.64V69.64C154.668 69.64 156.895 69.2631 158.94 68.4963L158.237 66.6237ZM152.269 62C153.273 62 154.221 61.8168 155.103 61.4391L154.315 59.6009C153.703 59.8632 153.025 60 152.269 60V62ZM155.091 61.444C155.989 61.0725 156.773 60.5411 157.432 59.8505L155.985 58.4695C155.524 58.9522 154.975 59.3275 154.326 59.596L155.091 61.444ZM157.431 59.8512C158.118 59.1331 158.641 58.2816 159.005 57.3111L157.132 56.6089C156.856 57.345 156.472 57.9602 155.986 58.4688L157.431 59.8512ZM159.008 57.3017C159.374 56.2955 159.549 55.1907 159.549 54H157.549C157.549 54.9959 157.403 55.8645 157.129 56.6183L159.008 57.3017ZM159.549 54C159.549 52.8101 159.375 51.7144 159.005 50.7289L157.132 51.4311C157.403 52.1522 157.549 53.0033 157.549 54H159.549ZM159.008 50.7383C158.645 49.7387 158.118 48.8754 157.416 48.1729L156.001 49.5871C156.472 50.0579 156.852 50.6613 157.129 51.4217L159.008 50.7383ZM157.447 48.2057C156.787 47.4832 155.999 46.9316 155.091 46.556L154.326 48.404C154.965 48.6684 155.51 49.0502 155.97 49.5543L157.447 48.2057ZM155.103 46.5609C154.221 46.1832 153.273 46 152.269 46V48C153.025 48 153.703 48.1368 154.315 48.3991L155.103 46.5609ZM152.269 46C151.264 46 150.307 46.1833 149.406 46.556L150.171 48.404C150.817 48.1367 151.513 48 152.269 48V46ZM149.395 46.5609C148.519 46.9363 147.741 47.4826 147.066 48.1888L148.511 49.5712C149.009 49.0508 149.565 48.6637 150.183 48.3991L149.395 46.5609ZM147.065 48.1895C146.396 48.8905 145.889 49.7482 145.529 50.7383L147.408 51.4217C147.688 50.6518 148.061 50.0428 148.512 49.5705L147.065 48.1895ZM145.532 50.7289C145.163 51.7144 144.989 52.8101 144.989 54H146.989C146.989 53.0033 147.135 52.1522 147.405 51.4311L145.532 50.7289ZM144.989 54C144.989 55.1907 145.163 56.2955 145.529 57.3017L147.408 56.6183C147.134 55.8645 146.989 54.9959 146.989 54H144.989ZM145.532 57.3111C145.893 58.2721 146.396 59.118 147.05 59.8343L148.527 58.4857C148.061 57.9753 147.685 57.3545 147.405 56.6089L145.532 57.3111ZM147.081 59.8671C147.756 60.5418 148.529 61.0679 149.395 61.4391L150.183 59.6009C149.555 59.332 148.994 58.9516 148.496 58.4529L147.081 59.8671ZM149.406 61.444C150.307 61.8167 151.264 62 152.269 62V60C151.513 60 150.817 59.8633 150.171 59.596L149.406 61.444ZM171.495 68H170.495V69H171.495V68ZM171.495 40V39H170.495V40H171.495ZM179.255 40L180.022 39.3588L179.722 39H179.255V40ZM193.495 57.04V58.04H195.634L194.262 56.3988L193.495 57.04ZM189.895 57.04H188.895V58.04H189.895V57.04ZM189.895 40V39H188.895V40H189.895ZM199.095 40H200.095V39H199.095V40ZM199.095 68V69H200.095V68H199.095ZM191.335 68L190.568 68.6412L190.867 69H191.335V68ZM177.095 50.96V49.96H174.956L176.328 51.6012L177.095 50.96ZM180.695 50.96H181.695V49.96H180.695V50.96ZM180.695 68V69H181.695V68H180.695ZM172.495 68V40H170.495V68H172.495ZM171.495 41H179.255V39H171.495V41ZM178.488 40.6412L192.728 57.6812L194.262 56.3988L180.022 39.3588L178.488 40.6412ZM193.495 56.04H189.895V58.04H193.495V56.04ZM190.895 57.04V40H188.895V57.04H190.895ZM189.895 41H199.095V39H189.895V41ZM198.095 40V68H200.095V40H198.095ZM199.095 67H191.335V69H199.095V67ZM192.102 67.3588L177.862 50.3188L176.328 51.6012L190.568 68.6412L192.102 67.3588ZM177.095 51.96H180.695V49.96H177.095V51.96ZM179.695 50.96V68H181.695V50.96H179.695ZM180.695 67H171.495V69H180.695V67ZM210.843 68H209.843V69H210.843V68ZM210.843 55.72L211.777 55.3624L209.843 55.72H210.843ZM213.003 61.36L212.144 61.8717L213.937 61.0024L213.003 61.36ZM200.283 40V39H198.524L199.424 40.5117L200.283 40ZM210.243 40L211.105 39.4925L210.815 39H210.243V40ZM218.843 54.6V55.6H220.593L219.705 54.0925L218.843 54.6ZM213.043 54.6L212.184 54.089L211.285 55.6H213.043V54.6ZM221.723 40V39H221.154L220.864 39.489L221.723 40ZM230.843 40L231.704 40.5093L232.597 39H230.843V40ZM218.203 61.36L217.265 61.014L219.064 61.8693L218.203 61.36ZM220.283 55.72H221.283L219.345 55.374L220.283 55.72ZM220.283 68V69H221.283V68H220.283ZM211.843 68V55.72H209.843V68H211.843ZM209.909 56.0776L212.069 61.7176L213.937 61.0024L211.777 55.3624L209.909 56.0776ZM213.862 60.8483L201.142 39.4883L199.424 40.5117L212.144 61.8717L213.862 60.8483ZM200.283 41H210.243V39H200.283V41ZM209.382 40.5075L217.982 55.1075L219.705 54.0925L211.105 39.4925L209.382 40.5075ZM218.843 53.6H213.043V55.6H218.843V53.6ZM213.903 55.111L222.583 40.511L220.864 39.489L212.184 54.089L213.903 55.111ZM221.723 41H230.843V39H221.723V41ZM229.983 39.4907L217.343 60.8507L219.064 61.8693L231.704 40.5093L229.983 39.4907ZM219.142 61.706L221.222 56.066L219.345 55.374L217.265 61.014L219.142 61.706ZM219.283 55.72V68H221.283V55.72H219.283ZM220.283 67H210.843V69H220.283V67Z" fill="#8F00FF"/>
</g>
<defs>
<filter id="filter0_d_213244_16" x="78.5652" y="7.36" width="137.621" height="59.28" filterUnits="userSpaceOnUse" color-interpolation-filters="sRGB">
<feFlood flood-opacity="0" result="BackgroundImageFix"/>
<feColorMatrix in="SourceAlpha" type="matrix" values="0 0 0 0 0 0 0 0 0 0 0 0 0 0 0 0 0 0 127 0" result="hardAlpha"/>
<feOffset dy="3"/>
<feGaussianBlur stdDeviation="7.5"/>
<feComposite in2="hardAlpha" operator="out"/>
<feColorMatrix type="matrix" values="0 0 0 0 0.56 0 0 0 0 0 0 0 0 0 1 0 0 0 0.4 0"/>
<feBlend mode="normal" in2="BackgroundImageFix" result="effect1_dropShadow_213244_16"/>
<feBlend mode="normal" in="SourceGraphic" in2="effect1_dropShadow_213244_16" result="shape"/>
</filter>
<filter id="filter1_d_213244_16" x="54.5183" y="28.36" width="195.325" height="59.28" filterUnits="userSpaceOnUse" color-interpolation-filters="sRGB">
<feFlood flood-opacity="0" result="BackgroundImageFix"/>
<feColorMatrix in="SourceAlpha" type="matrix" values="0 0 0 0 0 0 0 0 0 0 0 0 0 0 0 0 0 0 127 0" result="hardAlpha"/>
<feOffset dx="4" dy="4"/>
<feGaussianBlur stdDeviation="7.5"/>
<feComposite in2="hardAlpha" operator="out"/>
<feColorMatrix type="matrix" values="0 0 0 0 0.56 0 0 0 0 0 0 0 0 0 1 0 0 0 0.4 0"/>
<feBlend mode="normal" in2="BackgroundImageFix" result="effect1_dropShadow_213244_16"/>
<feBlend mode="normal" in="SourceGraphic" in2="effect1_dropShadow_213244_16" result="shape"/>
</filter>
</defs>
</svg>
